<mxfile host="Electron" agent="Mozilla/5.0 (Windows NT 10.0; Win64; x64) AppleWebKit/537.36 (KHTML, like Gecko) draw.io/26.1.1 Chrome/132.0.6834.210 Electron/34.3.3 Safari/537.36" version="26.1.1">
  <diagram id="C5RBs43oDa-KdzZeNtuy" name="Page-1">
    <mxGraphModel dx="1036" dy="606" grid="1" gridSize="10" guides="1" tooltips="1" connect="1" arrows="1" fold="1" page="1" pageScale="1" pageWidth="827" pageHeight="1169" math="0" shadow="0">
      <root>
        <mxCell id="WIyWlLk6GJQsqaUBKTNV-0" />
        <mxCell id="WIyWlLk6GJQsqaUBKTNV-1" parent="WIyWlLk6GJQsqaUBKTNV-0" />
        <mxCell id="-TXLApvKWsIajHPQzwu2-0" value="START" style="rounded=1;whiteSpace=wrap;html=1;" vertex="1" parent="WIyWlLk6GJQsqaUBKTNV-1">
          <mxGeometry x="354" y="50" width="120" height="60" as="geometry" />
        </mxCell>
        <mxCell id="-TXLApvKWsIajHPQzwu2-2" value="" style="edgeStyle=orthogonalEdgeStyle;rounded=0;orthogonalLoop=1;jettySize=auto;html=1;" edge="1" parent="WIyWlLk6GJQsqaUBKTNV-1" source="-TXLApvKWsIajHPQzwu2-1" target="-TXLApvKWsIajHPQzwu2-0">
          <mxGeometry relative="1" as="geometry" />
        </mxCell>
        <mxCell id="-TXLApvKWsIajHPQzwu2-4" value="" style="edgeStyle=orthogonalEdgeStyle;rounded=0;orthogonalLoop=1;jettySize=auto;html=1;" edge="1" parent="WIyWlLk6GJQsqaUBKTNV-1" source="-TXLApvKWsIajHPQzwu2-1" target="-TXLApvKWsIajHPQzwu2-3">
          <mxGeometry relative="1" as="geometry" />
        </mxCell>
        <mxCell id="-TXLApvKWsIajHPQzwu2-1" value="set correctnumber&lt;div&gt;between 1 and 100&lt;/div&gt;" style="shape=parallelogram;perimeter=parallelogramPerimeter;whiteSpace=wrap;html=1;fixedSize=1;" vertex="1" parent="WIyWlLk6GJQsqaUBKTNV-1">
          <mxGeometry x="354" y="160" width="126" height="60" as="geometry" />
        </mxCell>
        <mxCell id="-TXLApvKWsIajHPQzwu2-6" value="" style="edgeStyle=orthogonalEdgeStyle;rounded=0;orthogonalLoop=1;jettySize=auto;html=1;" edge="1" parent="WIyWlLk6GJQsqaUBKTNV-1" source="-TXLApvKWsIajHPQzwu2-3" target="-TXLApvKWsIajHPQzwu2-5">
          <mxGeometry relative="1" as="geometry" />
        </mxCell>
        <mxCell id="-TXLApvKWsIajHPQzwu2-3" value="Show Guess&amp;nbsp;&lt;div&gt;correctnumber&lt;/div&gt;&lt;div&gt;between 1&amp;nbsp;&lt;/div&gt;&lt;div&gt;and 100&lt;/div&gt;" style="shape=parallelogram;perimeter=parallelogramPerimeter;whiteSpace=wrap;html=1;fixedSize=1;" vertex="1" parent="WIyWlLk6GJQsqaUBKTNV-1">
          <mxGeometry x="357" y="300" width="120" height="60" as="geometry" />
        </mxCell>
        <mxCell id="-TXLApvKWsIajHPQzwu2-9" style="edgeStyle=orthogonalEdgeStyle;rounded=0;orthogonalLoop=1;jettySize=auto;html=1;exitX=0;exitY=0.5;exitDx=0;exitDy=0;" edge="1" parent="WIyWlLk6GJQsqaUBKTNV-1" source="-TXLApvKWsIajHPQzwu2-5">
          <mxGeometry relative="1" as="geometry">
            <mxPoint x="240" y="770" as="targetPoint" />
          </mxGeometry>
        </mxCell>
        <mxCell id="-TXLApvKWsIajHPQzwu2-10" style="edgeStyle=orthogonalEdgeStyle;rounded=0;orthogonalLoop=1;jettySize=auto;html=1;" edge="1" parent="WIyWlLk6GJQsqaUBKTNV-1" source="-TXLApvKWsIajHPQzwu2-5">
          <mxGeometry relative="1" as="geometry">
            <mxPoint x="580" y="470" as="targetPoint" />
          </mxGeometry>
        </mxCell>
        <mxCell id="-TXLApvKWsIajHPQzwu2-30" style="edgeStyle=orthogonalEdgeStyle;rounded=0;orthogonalLoop=1;jettySize=auto;html=1;entryX=0.5;entryY=0;entryDx=0;entryDy=0;" edge="1" parent="WIyWlLk6GJQsqaUBKTNV-1" source="-TXLApvKWsIajHPQzwu2-5" target="-TXLApvKWsIajHPQzwu2-24">
          <mxGeometry relative="1" as="geometry" />
        </mxCell>
        <mxCell id="-TXLApvKWsIajHPQzwu2-5" value="is the guess the&lt;div&gt;correctnumber&lt;/div&gt;" style="rhombus;whiteSpace=wrap;html=1;" vertex="1" parent="WIyWlLk6GJQsqaUBKTNV-1">
          <mxGeometry x="340" y="430" width="130" height="80" as="geometry" />
        </mxCell>
        <mxCell id="-TXLApvKWsIajHPQzwu2-14" style="edgeStyle=orthogonalEdgeStyle;rounded=0;orthogonalLoop=1;jettySize=auto;html=1;" edge="1" parent="WIyWlLk6GJQsqaUBKTNV-1" source="-TXLApvKWsIajHPQzwu2-12">
          <mxGeometry relative="1" as="geometry">
            <mxPoint x="580" y="600" as="targetPoint" />
            <Array as="points">
              <mxPoint x="580" y="590" />
              <mxPoint x="581" y="590" />
            </Array>
          </mxGeometry>
        </mxCell>
        <mxCell id="-TXLApvKWsIajHPQzwu2-22" style="edgeStyle=orthogonalEdgeStyle;rounded=0;orthogonalLoop=1;jettySize=auto;html=1;entryX=0.75;entryY=0;entryDx=0;entryDy=0;" edge="1" parent="WIyWlLk6GJQsqaUBKTNV-1" source="-TXLApvKWsIajHPQzwu2-12" target="-TXLApvKWsIajHPQzwu2-20">
          <mxGeometry relative="1" as="geometry">
            <mxPoint x="700" y="463" as="targetPoint" />
          </mxGeometry>
        </mxCell>
        <mxCell id="-TXLApvKWsIajHPQzwu2-12" value="no" style="text;html=1;align=center;verticalAlign=middle;resizable=0;points=[];autosize=1;strokeColor=none;fillColor=none;" vertex="1" parent="WIyWlLk6GJQsqaUBKTNV-1">
          <mxGeometry x="560" y="430" width="40" height="30" as="geometry" />
        </mxCell>
        <mxCell id="-TXLApvKWsIajHPQzwu2-13" value="yes" style="text;html=1;align=center;verticalAlign=middle;resizable=0;points=[];autosize=1;strokeColor=none;fillColor=none;" vertex="1" parent="WIyWlLk6GJQsqaUBKTNV-1">
          <mxGeometry x="220" y="448" width="40" height="30" as="geometry" />
        </mxCell>
        <mxCell id="-TXLApvKWsIajHPQzwu2-20" value="display&amp;nbsp;&lt;div&gt;to high&lt;/div&gt;" style="whiteSpace=wrap;html=1;aspect=fixed;" vertex="1" parent="WIyWlLk6GJQsqaUBKTNV-1">
          <mxGeometry x="630" y="590" width="80" height="80" as="geometry" />
        </mxCell>
        <mxCell id="-TXLApvKWsIajHPQzwu2-21" value="display to low" style="whiteSpace=wrap;html=1;aspect=fixed;" vertex="1" parent="WIyWlLk6GJQsqaUBKTNV-1">
          <mxGeometry x="500" y="590" width="90" height="90" as="geometry" />
        </mxCell>
        <mxCell id="-TXLApvKWsIajHPQzwu2-26" value="" style="edgeStyle=orthogonalEdgeStyle;rounded=0;orthogonalLoop=1;jettySize=auto;html=1;" edge="1" parent="WIyWlLk6GJQsqaUBKTNV-1" source="-TXLApvKWsIajHPQzwu2-24">
          <mxGeometry relative="1" as="geometry">
            <mxPoint x="240" y="770" as="targetPoint" />
          </mxGeometry>
        </mxCell>
        <mxCell id="-TXLApvKWsIajHPQzwu2-24" value="display&lt;div&gt;correctnumber&lt;/div&gt;" style="shape=parallelogram;perimeter=parallelogramPerimeter;whiteSpace=wrap;html=1;fixedSize=1;" vertex="1" parent="WIyWlLk6GJQsqaUBKTNV-1">
          <mxGeometry x="340" y="740" width="120" height="60" as="geometry" />
        </mxCell>
        <mxCell id="-TXLApvKWsIajHPQzwu2-28" value="" style="edgeStyle=orthogonalEdgeStyle;rounded=0;orthogonalLoop=1;jettySize=auto;html=1;" edge="1" parent="WIyWlLk6GJQsqaUBKTNV-1" source="-TXLApvKWsIajHPQzwu2-27" target="-TXLApvKWsIajHPQzwu2-24">
          <mxGeometry relative="1" as="geometry" />
        </mxCell>
        <mxCell id="-TXLApvKWsIajHPQzwu2-27" value="end" style="rounded=1;whiteSpace=wrap;html=1;" vertex="1" parent="WIyWlLk6GJQsqaUBKTNV-1">
          <mxGeometry x="345" y="850" width="120" height="60" as="geometry" />
        </mxCell>
      </root>
    </mxGraphModel>
  </diagram>
</mxfile>
